<svg id="avatar" xmlns="http://www.w3.org/2000/svg" viewBox="0 0 258.76 218.13"><defs><style>.cls-1{fill:#f5e4b0;}.cls-2{fill:#313950;}</style></defs><title>asteroide_5</title><polygon class="cls-1" points="9.38 127.6 28.42 54.23 59.4 55.67 95.14 33.3 104.17 12.61 148.34 0 171.23 36.57 162.09 42.3 182.79 69.83 227.62 32.4 258.76 58.14 233.54 112.1 165.49 160.48 121.1 152.4 89.11 195.56 60.44 218.13 34.45 213.57 7.35 170.27 33.27 159.94 0 143.75 9.38 127.6"/><circle class="cls-2" cx="47.38" cy="99.02" r="7.8"/><ellipse class="cls-2" cx="58.74" cy="131.87" rx="26.29" ry="10.55" transform="matrix(0.94, -0.33, 0.33, 0.94, -40.63, 27.16)"/><ellipse class="cls-2" cx="91.01" cy="59.46" rx="9.9" ry="5.55" transform="translate(-17.68 57.34) rotate(-32.04)"/><ellipse class="cls-2" cx="153.45" cy="140.5" rx="7.28" ry="11.46" transform="translate(-0.39 280.58) rotate(-84.79)"/><circle class="cls-2" cx="193.76" cy="78.03" r="2.3"/><circle class="cls-2" cx="191.24" cy="90.48" r="4.9"/><circle class="cls-2" cx="137.08" cy="8.74" r="2.36"/><circle class="cls-2" cx="138.17" cy="23.39" r="5.67"/><circle class="cls-2" cx="146.89" cy="12.71" r="1.24"/><circle class="cls-2" cx="51.05" cy="200.37" r="5.87"/><circle class="cls-2" cx="48.39" cy="186.72" r="0.88"/><circle class="cls-2" cx="61.6" cy="191.7" r="4.11"/><ellipse class="cls-2" cx="125.9" cy="91.64" rx="19.45" ry="32.03" transform="translate(8.37 193.79) rotate(-77.04)"/><circle class="cls-2" cx="230.08" cy="69.48" r="9.71"/></svg>