<svg id="avatar" xmlns="http://www.w3.org/2000/svg" viewBox="0 0 186.6 139.81"><defs><style>.cls-1{fill:#f5e4b0;}.cls-2{fill:#313950;}</style></defs><title>asteroide_1</title><path class="cls-1" d="M186.9,53.1,170.84,41.19c-1-5.14-5.27-9-11.72-11.73l-1.68-13L132.62,7.15,111.77,0l-9.45,4.63H45.51l-7.4,23.61c-11.32,1.44-18.57,2.61-18.57,2.61L2.91,51.16,14,77.63,2.91,102.5l18.47,33,27.7,4.31,26.47-4.93,17.24-17.23L155,124.42,181.43,106,164.81,94.87l6.48-11.08,0-7.24,12.3-1.83Z"/><ellipse class="cls-2" cx="111.77" cy="24.98" rx="10.01" ry="22.25" transform="translate(51.72 122.5) rotate(-70.97)"/><ellipse class="cls-2" cx="123.4" cy="62.37" rx="36.53" ry="19.29" transform="translate(-11.67 32.8) rotate(-14.47)"/><ellipse class="cls-2" cx="29.19" cy="60.57" rx="15.58" ry="8.99" transform="translate(-14.2 9.21) rotate(-14.47)"/><ellipse class="cls-2" cx="31.36" cy="107.5" rx="5.87" ry="10.17" transform="translate(-72.6 65.89) rotate(-51.93)"/><ellipse class="cls-2" cx="141.58" cy="107.5" rx="5.87" ry="10.17" transform="translate(-11.86 197.27) rotate(-67.54)"/><circle class="cls-2" cx="41.51" cy="97.86" r="1.36"/><circle class="cls-2" cx="71.82" cy="65.51" r="3.13"/><circle class="cls-2" cx="79.92" cy="71.84" r="1.19"/><circle class="cls-2" cx="81.99" cy="58.1" r="3.26"/><circle class="cls-2" cx="143.21" cy="21.46" r="3.51"/><circle class="cls-2" cx="145.85" cy="30.12" r="0.88"/></svg>