<svg id="avatar" xmlns="http://www.w3.org/2000/svg" viewBox="0 0 353.96 270.25"><defs><style>.cls-1{fill:#f5e4b0;}.cls-2{fill:#313950;}</style></defs><title>asteroide_4</title><path class="cls-1" d="M.27,110.68l22.49,29.54c-.82,9.71,4.76,18.71,14.84,27l-3.76,24.14L73.33,220.7l33.48,23.54,19.25-3.37,101.33,29.38L252.79,232c20.94,3.29,34.47,4.95,34.47,4.95l40.15-27.64-6.07-52.94L354,117.72l-15.87-68.4-47.18-22L241.16,22.4,201.5,44.23,94.12,0,37.36,19.25,61.27,47.61,44,64,40.33,77,17.46,73.85Z"/><ellipse class="cls-2" cx="119.73" cy="199.69" rx="18.6" ry="41.32" transform="translate(-112.47 182.43) rotate(-54.8)"/><ellipse class="cls-2" cx="118.32" cy="126.97" rx="35.81" ry="67.84" transform="translate(-12.12 241.46) rotate(-88.29)"/><ellipse class="cls-2" cx="285.42" cy="178.92" rx="16.69" ry="28.92" transform="translate(98.09 458.88) rotate(-88.29)"/><ellipse class="cls-2" cx="305.81" cy="94.09" rx="10.89" ry="18.88" transform="translate(2.66 196.43) rotate(-35.75)"/><ellipse class="cls-2" cx="109.24" cy="37.09" rx="10.89" ry="18.88" transform="translate(12.06 99.27) rotate(-51.37)"/><circle class="cls-2" cx="282.72" cy="106.05" r="2.53"/><circle class="cls-2" cx="211.94" cy="148.06" r="5.82"/><circle class="cls-2" cx="200.77" cy="132.59" r="2.21"/><circle class="cls-2" cx="189.98" cy="156.02" r="6.06"/><circle class="cls-2" cx="61.83" cy="189.7" r="6.52"/><circle class="cls-2" cx="61.61" cy="172.89" r="1.63"/></svg>