<svg id="avatar" xmlns="http://www.w3.org/2000/svg" viewBox="0 0 50.97 42.97"><defs><style>.cls-1{fill:#f5e4b0;}.cls-2{fill:#313950;}</style></defs><title>asteroide_3-04-04</title><polygon class="cls-1" points="1.85 25.14 5.6 10.68 11.7 10.97 18.74 6.56 20.52 2.48 29.22 0 33.73 7.2 31.93 8.33 36.01 13.76 44.84 6.38 50.97 11.45 46.01 22.08 32.6 31.61 23.86 30.02 17.55 38.52 11.91 42.97 6.79 42.07 1.45 33.54 6.55 31.51 0 28.32 1.85 25.14"/><circle class="cls-2" cx="9.33" cy="19.51" r="1.54"/><ellipse class="cls-2" cx="11.57" cy="25.98" rx="5.18" ry="2.08" transform="translate(-8 5.35) rotate(-19.49)"/><ellipse class="cls-2" cx="17.93" cy="11.71" rx="1.95" ry="1.09" transform="matrix(0.85, -0.53, 0.53, 0.85, -3.48, 11.3)"/><ellipse class="cls-2" cx="30.23" cy="27.68" rx="1.43" ry="2.26" transform="translate(-0.08 55.27) rotate(-84.79)"/><circle class="cls-2" cx="38.17" cy="15.37" r="0.45"/><circle class="cls-2" cx="37.67" cy="17.82" r="0.97"/><circle class="cls-2" cx="27" cy="1.72" r="0.47"/><circle class="cls-2" cx="27.22" cy="4.61" r="1.12"/><circle class="cls-2" cx="28.93" cy="2.5" r="0.24"/><circle class="cls-2" cx="10.06" cy="39.47" r="1.16"/><circle class="cls-2" cx="9.53" cy="36.78" r="0.17"/><circle class="cls-2" cx="12.13" cy="37.76" r="0.81"/><ellipse class="cls-2" cx="24.8" cy="18.05" rx="3.83" ry="6.31" transform="translate(1.65 38.17) rotate(-77.04)"/><circle class="cls-2" cx="45.32" cy="13.69" r="1.91"/></svg>