<svg id="avatar" xmlns="http://www.w3.org/2000/svg" viewBox="0 0 86.29 70.15"><defs><style>.cls-1{fill:#f5e4b0;}.cls-2{fill:#313950;}</style></defs><title>asteroide_2-04</title><path class="cls-1" d="M86.29,45.93,81.69,38c.5-2.35-.6-4.72-2.81-7.05l1.66-5.79L71.77,16.8,64.29,10l-4.81.23L35.59,0,28.22,8.59c-5-1.44-8.28-2.26-8.28-2.26L9.28,11.87,9.15,25,0,33.46,1.8,50.67l10.87,6.82,12,2.71,10.37-4.13L60,70.15l14.46-3-5-7.67L74.18,56l1.29-3L81,54.41Z"/><ellipse class="cls-2" cx="55.2" cy="22.69" rx="4.58" ry="8.55" transform="translate(1.28 48.26) rotate(-47.72)"/><ellipse class="cls-2" cx="28.73" cy="36.13" rx="8.83" ry="12.2" transform="translate(-15.79 23.95) rotate(-36.21)"/><ellipse class="cls-2" cx="57.75" cy="44.7" rx="4.11" ry="7.13" transform="translate(4.75 94.95) rotate(-81.21)"/><ellipse class="cls-2" cx="78.06" cy="47.08" rx="2.68" ry="4.65" transform="translate(-13.02 43.23) rotate(-28.67)"/><ellipse class="cls-2" cx="34.72" cy="11.92" rx="2.68" ry="4.65" transform="translate(1.54 27.63) rotate(-44.29)"/><circle class="cls-2" cx="70.58" cy="37.38" r="0.62"/><circle class="cls-2" cx="56.67" cy="55.61" r="1.43"/><circle class="cls-2" cx="54.41" cy="51.49" r="0.55"/><circle class="cls-2" cx="51.05" cy="56.89" r="1.49"/><circle class="cls-2" cx="13.1" cy="19.83" r="1.61"/><circle class="cls-2" cx="9.27" cy="30.81" r="0.4"/></svg>