<svg xmlns="http://www.w3.org/2000/svg" viewBox="0 0 260.42 324.29"><defs><style>.cls-1{isolation:isolate;}.cls-10,.cls-2{fill:#f56860;}.cls-11,.cls-3,.cls-6{fill:#e7bb39;}.cls-10,.cls-11,.cls-12,.cls-13,.cls-14,.cls-3,.cls-7{stroke:#000;}.cls-11,.cls-12,.cls-13,.cls-3{stroke-miterlimit:10;}.cls-3{stroke-width:0.87px;}.cls-4{fill:#313950;}.cls-5{fill:#fcd6b9;}.cls-7{fill:none;stroke-width:1.35px;}.cls-14,.cls-7{stroke-linecap:round;}.cls-10,.cls-14,.cls-7{stroke-linejoin:round;}.cls-12,.cls-8{fill:#f79950;}.cls-9{fill:#fbc3bf;}.cls-10{stroke-width:0.97px;}.cls-11{stroke-width:0.81px;}.cls-12,.cls-13,.cls-14{stroke-width:0.9px;}.cls-13,.cls-14{mix-blend-mode:soft-light;}.cls-15{opacity:0.3;}.cls-16{fill:#f5e4b0;}</style></defs><title>avatar</title><g class="cls-1"><g id="avatar"><path class="cls-2" d="M1,239.19c2.16,11.08,9.9,20.13,18.69,26.53s18.78,10.69,28.17,16.06c12.85,7.34,24.7,16.77,38.29,22.4,11.48,4.75,23.81,6.62,35.74,9.86,10.2,2.78,20.29,6.59,30.81,7.07,12.38.57,24.67-3.57,35.45-10.07s20.17-15.29,29-24.55c6.22-6.53,12.24-13.41,16.6-21.46a6.63,6.63,0,0,0,1.08-3.42,7.13,7.13,0,0,0-1.21-3.11l-11.78-19.92c-2.46-4.15-5-8.41-8.74-11.31-4.93-3.84-11.38-4.82-17.49-4.53s-12.13,1.72-18.23,2.2c-18.58,1.44-36.73-6-55.31-7.27-7.49-.51-15.06,0-22.48-1.24-12.49-2.06-24.31-8.94-36.94-8.34-10.17.48-19.52,5.76-28.46,10.93C23.4,225.25,12.52,231.55,3.14,240"/><path d="M1.17,239.16A37.77,37.77,0,0,0,8.55,254.3,57.42,57.42,0,0,0,21,265.73c9.3,6.47,20,10.69,29.87,16.57S70,294.88,80.05,300a90.58,90.58,0,0,0,15.67,6.24c5.41,1.62,11,2.92,16.51,4.24s11.11,2.83,16.56,4.55a154.11,154.11,0,0,0,16.43,4.45,53.11,53.11,0,0,0,16.83.64,62.78,62.78,0,0,0,16.3-4.55c10.5-4.38,19.71-11.36,28-19.07,4.17-3.86,8.15-7.95,12-12.15a117.31,117.31,0,0,0,10.72-13.2,65.25,65.25,0,0,0,4.31-7.25,5.41,5.41,0,0,0,.55-1.76,3.17,3.17,0,0,0-.29-1.66c-.5-1.12-1.37-2.38-2.07-3.59l-8.84-14.66c-3-4.84-5.62-10-9.75-13.5S203.3,224,197.82,224s-11.1,1.2-16.83,1.94a73.85,73.85,0,0,1-17.39.1c-11.52-1.23-22.58-4.38-33.74-6-1.4-.23-2.8-.37-4.19-.56s-2.8-.27-4.2-.38c-2.8-.18-5.63-.23-8.49-.3-5.69-.11-11.59-.33-17.27-1.78s-11-3.39-16.43-5.05-10.9-3-16.44-2.78a44.26,44.26,0,0,0-16.1,4.17c-5.15,2.3-10.08,5.17-15.06,8-9.92,5.59-19.83,11.31-28.45,18.8l-.19-.2c8.41-7.78,18.15-14,28-19.79,4.91-2.9,9.79-5.9,15-8.38A44.67,44.67,0,0,1,62.75,207c5.92-.3,11.7,1,17.21,2.63s10.88,3.55,16.34,4.77,11,1.47,16.73,1.55c2.85.05,5.72.08,8.62.25,1.44.1,2.89.22,4.33.36s2.87.32,4.3.55c11.41,1.69,22.43,4.78,33.63,6.07a71.64,71.64,0,0,0,16.75,0c5.59-.67,11.26-1.87,17.17-1.83a32.19,32.19,0,0,1,8.8,1.24,21.06,21.06,0,0,1,7.93,4.25,31.27,31.27,0,0,1,5.65,6.83c1.57,2.45,2.95,4.94,4.4,7.4L233.19,256l1.07,1.85a15.86,15.86,0,0,1,1,2,5,5,0,0,1,.36,2.52,7.43,7.43,0,0,1-.75,2.29,66.35,66.35,0,0,1-4.59,7.36,119.48,119.48,0,0,1-11.09,13.16c-3.95,4.12-8,8.18-12.2,12.05A128.26,128.26,0,0,1,193.66,308a85.22,85.22,0,0,1-14.94,8.46,64.68,64.68,0,0,1-16.52,4.79A54.26,54.26,0,0,1,145,321a155.92,155.92,0,0,1-16.7-4.11c-2.74-.78-5.48-1.55-8.23-2.23s-5.53-1.31-8.31-1.94c-5.55-1.27-11.16-2.47-16.68-4.13A85.75,85.75,0,0,1,79,302.11c-10.25-5.33-19.46-12.18-29.18-18s-20.27-10.43-29.63-17.19a55.24,55.24,0,0,1-12.33-12A37,37,0,0,1,.91,239.21Z"/><path class="cls-3" d="M183.67,222q13.11.06,26.24,1a11.16,11.16,0,0,1,5.08,1.22,10.09,10.09,0,0,1,3.52,4.39c2.1,4.34,2.92,9.22,3.59,14,.59,4.31,1.08,8.73.22,12.95s-3.29,8.28-7,9.82a9.6,9.6,0,0,1-11-3.22,23.84,23.84,0,0,1-3-6.46,134.53,134.53,0,0,0-17.5-33.35"/><path class="cls-2" d="M61.11,193.13l-4.86,7.79A15.16,15.16,0,0,0,54,205.7c-.68,3.22.77,6.47,2.18,9.45,3.28,6.92,6.83,14.17,13.14,18.52,3.9,2.68,8.54,4,13.11,5.27q10.89,3,21.91,5.4c13.53,3,27.29,5.57,41.15,5.3s27.94-3.48,39.48-11.16c1.49-1,3-2.19,3.48-3.92a7.89,7.89,0,0,0-.66-4.46l-5.42-15.29"/><path d="M61.22,193.2c-.95,1.79-1.93,3.55-2.92,5.3s-2,3.53-2.85,5.26a8.16,8.16,0,0,0-.54,5.39,24.83,24.83,0,0,0,2.14,5.38A94.72,94.72,0,0,0,62.79,225a29.18,29.18,0,0,0,8,8.29,41.5,41.5,0,0,0,10.81,4.65c3.85,1.15,7.74,2.21,11.64,3.23s7.81,2,11.73,2.86,7.91,1.51,11.88,2.15a180.08,180.08,0,0,0,23.9,2.19,94.35,94.35,0,0,0,23.6-2.55,72.6,72.6,0,0,0,11.26-3.67c1.81-.78,3.61-1.6,5.34-2.55l1.3-.71,1.27-.77a19.69,19.69,0,0,0,2.38-1.59,5.05,5.05,0,0,0,1.54-1.93,4.19,4.19,0,0,0,.09-2.45c-.18-.89-.52-1.85-.82-2.81l-.91-2.88q-1.82-5.77-3.52-11.58l.25-.09q2.34,5.58,4.56,11.21l1.1,2.81c.36.94.77,1.86,1.07,2.93a6.06,6.06,0,0,1,0,3.51,6.68,6.68,0,0,1-2,2.88,20.67,20.67,0,0,1-2.56,1.88l-1.28.85-1.33.79a61.48,61.48,0,0,1-5.44,2.89A67.6,67.6,0,0,1,165,248.6a85.94,85.94,0,0,1-24.37,2.29,135.27,135.27,0,0,1-24.1-3.27c-4-.82-7.88-1.8-11.81-2.72s-7.82-2-11.74-2.9l-5.91-1.34c-2-.43-4-.81-5.92-1.28a42.24,42.24,0,0,1-11.6-4.2,27.51,27.51,0,0,1-8.78-8.89,78.34,78.34,0,0,1-5.64-10.86,24.49,24.49,0,0,1-2-5.94,10.92,10.92,0,0,1,0-3.28,10.15,10.15,0,0,1,1.08-3.08c1-1.87,2.24-3.43,3.37-5.11s2.29-3.32,3.47-5Z"/><path class="cls-4" d="M93.75,195.75c-5.06-.82-9.42-3.87-14-6.05s-10.32-3.48-14.71-.85c-4.16,2.5-5.82,8-4.93,12.74s3.87,8.88,7.25,12.35c11,11.25,26.45,17.09,42,19.61s31.3,2,47,2.55c4.07.13,8.22.31,12.12-.83,7.14-2.07,12.5-8.49,14.58-15.63a13,13,0,0,0,.56-5.84c-.82-4.68-5.52-7.85-10.21-8.61s-9.45.3-14.15,1.05a102.82,102.82,0,0,1-19.28,1.22"/><path d="M93.73,195.89a24.48,24.48,0,0,1-7.3-2.21c-2.33-1-4.57-2.22-6.83-3.24a24.54,24.54,0,0,0-7-2,11.18,11.18,0,0,0-6.74,1.14,9.37,9.37,0,0,0-4.14,5.17,12.76,12.76,0,0,0-.44,6.82c1,4.61,4,8.66,7.4,12.15A57.58,57.58,0,0,0,80.3,223a69.68,69.68,0,0,0,6.59,3.57,75.06,75.06,0,0,0,7,2.8c9.5,3.32,19.59,4.59,29.61,5s20.12.19,30.23.37c5.06,0,10.12.52,14.58-.93A20.09,20.09,0,0,0,179,225.08a24.43,24.43,0,0,0,2.85-6.52,9.2,9.2,0,0,0-.23-6.46,10.21,10.21,0,0,0-4.77-4.58A15.62,15.62,0,0,0,170,206c-4.84-.08-9.84,1.13-14.91,1.51a92.84,92.84,0,0,1-15.19.1v-.27a115.78,115.78,0,0,0,15-1.19c2.48-.34,4.93-.82,7.41-1.31a42.12,42.12,0,0,1,7.67-.95,17.8,17.8,0,0,1,7.85,1.52,12.68,12.68,0,0,1,6.09,5.55,9.94,9.94,0,0,1,1.08,4.19,15,15,0,0,1-.51,4.12,26.75,26.75,0,0,1-3.07,7.34,24.42,24.42,0,0,1-5.23,6.06,21.84,21.84,0,0,1-3.33,2.29,20.26,20.26,0,0,1-3.75,1.58,27.06,27.06,0,0,1-7.87,1c-2.6,0-5.1-.16-7.61-.23-10.06-.34-20.18-.49-30.27-1.44a136.59,136.59,0,0,1-29.79-5.68c-9.61-3.09-19-7.71-26.48-14.87a34,34,0,0,1-5-5.94A20.22,20.22,0,0,1,58.94,202a15.13,15.13,0,0,1,.63-8.08,11.48,11.48,0,0,1,5.3-6.22,12.73,12.73,0,0,1,8-1.1,24.31,24.31,0,0,1,7.38,2.51c2.28,1.17,4.41,2.52,6.61,3.71a26.86,26.86,0,0,0,6.94,2.77Z"/><path class="cls-5" d="M108.21,173.12s17.8,21,40.9,12.63,21.58-36.74,18.93-47-4.68-13.63,1.45-22.34-5.24-36-21.9-39-64-6.38-64,32.4,14.77,39.54,10.22,99c0,0,12.5,26.89,45.82,16.29,0,0-.93-32.88,5.32-38.18"/><path d="M108.28,173.06a49.21,49.21,0,0,0,8.5,7.14,42.92,42.92,0,0,0,9.86,5,33.46,33.46,0,0,0,10.79,2,31.13,31.13,0,0,0,10.77-1.77,29.43,29.43,0,0,0,9.46-5.31,28.12,28.12,0,0,0,6.68-8.52c3.34-6.5,4.48-14,4.32-21.29a51.63,51.63,0,0,0-1.28-10.9c-.45-1.78-.95-3.58-1.43-5.39a38.84,38.84,0,0,1-1.14-5.58,13.82,13.82,0,0,1,.61-5.81,22.26,22.26,0,0,1,2.59-5.13l.8-1.17a12.3,12.3,0,0,0,.68-1.11,9.49,9.49,0,0,0,.81-2.48,18,18,0,0,0,.15-5.39,37.14,37.14,0,0,0-3-10.56,42.25,42.25,0,0,0-5.67-9.46A29.93,29.93,0,0,0,153.59,80,19.85,19.85,0,0,0,148.51,78c-1.78-.43-3.64-.68-5.47-.94a103.87,103.87,0,0,0-22.22-.61c-7.36.67-14.75,2.3-21.23,5.82a30.07,30.07,0,0,0-8.5,6.85A27,27,0,0,0,85.9,98.6c-2.25,7-1.57,14.55-1.05,21.89a121.94,121.94,0,0,0,4,21.8,195.52,195.52,0,0,1,5.06,21.84l.43,2.78c.13.93.21,1.86.31,2.79.18,1.87.44,3.73.51,5.6l.32,5.61.08,5.61,0,2.81-.07,2.8-.15,5.6c-.18,3.73-.45,7.46-.67,11.18l-.08-.45a35.26,35.26,0,0,0,8,10.1,32.58,32.58,0,0,0,11.14,6.51,34.85,34.85,0,0,0,12.83,1.79,49.92,49.92,0,0,0,12.9-2.27l-.39.55q-.06-4.9.11-9.8c.1-3.27.27-6.53.58-9.79a88.57,88.57,0,0,1,1.36-9.71,35.24,35.24,0,0,1,1.27-4.74,10.31,10.31,0,0,1,2.5-4.22l.12.14a10.07,10.07,0,0,0-2.32,4.18,36.17,36.17,0,0,0-1.13,4.73,89.55,89.55,0,0,0-1.08,9.68c-.4,6.49-.48,13-.29,19.5v.42l-.4.13a50.88,50.88,0,0,1-13.18,2.57,36.36,36.36,0,0,1-13.37-1.72,34.29,34.29,0,0,1-11.76-6.68A37,37,0,0,1,96.77,215,32,32,0,0,1,93,209.23l-.1-.2,0-.25c.21-3.71.46-7.42.63-11.12l.14-5.57.06-2.78,0-2.78L93.63,181l-.34-5.54c-.07-1.85-.34-3.69-.51-5.53-.11-.91-.19-1.84-.31-2.75l-.42-2.74a195.45,195.45,0,0,0-4.88-21.69,121.38,121.38,0,0,1-3.91-22.1c-.33-3.74-.34-7.48-.37-11.23a37.68,37.68,0,0,1,1.79-11.19,28.28,28.28,0,0,1,5.55-9.87,31.11,31.11,0,0,1,8.9-7c6.7-3.53,14.21-5,21.63-5.64a106.36,106.36,0,0,1,22.35.72c1.86.25,3.7.49,5.54.91a20.57,20.57,0,0,1,5.25,2.09,30.69,30.69,0,0,1,8.48,7.36,44.45,44.45,0,0,1,6,9.54,37.93,37.93,0,0,1,3.24,10.81,19.39,19.39,0,0,1-.06,5.74,10.67,10.67,0,0,1-.88,2.83,14.35,14.35,0,0,1-.75,1.28l-.75,1.15a21.27,21.27,0,0,0-2.35,4.85,12.77,12.77,0,0,0-.48,5.22c.44,3.55,1.7,7.1,2.59,10.75a52.05,52.05,0,0,1,1.39,11.23c.11,7.52-1.1,15.23-4.64,22a28.7,28.7,0,0,1-17,14.32,32.46,32.46,0,0,1-11.19,1.64A33.93,33.93,0,0,1,126.35,186a43.83,43.83,0,0,1-9.88-5.33,46.57,46.57,0,0,1-8.33-7.47Z"/><path class="cls-6" d="M77.17,109.59s21.17-2.12,23.29,28.23c0,0,3.88-8.12,8.82-8.82,0,0-10.59-25.76,6-38.81,0,0,13.59,7.76,35.37,6s32.73,9.18,28.49,17.82c0,0,15.17-19.23-12-29.11,0,0,13.77-14.11,32.82-12.35,0,0-19.05-14.46-42.34,1.77,0,0,21.17-19.06,45.51-20.82,0,0-19.75-3.53-33.52,0,0,0,25.06-13.06,40.58-17.29,0,0-94.56,6.7-126.67,33.17L82.82,80,70.11,84.54Z"/><path d="M77.2,109.56a18.48,18.48,0,0,1,5.06.43,19.57,19.57,0,0,1,2.45.72l1.2.45c.39.17.77.38,1.15.57a21.21,21.21,0,0,1,7.63,6.7l1.4,2.15,1.12,2.31c.18.39.4.77.54,1.17l.41,1.21L99,127.7c.39,1.66.77,3.34,1.09,5l.6,5.09-.42-.08a28,28,0,0,1,1.62-2.81,22.31,22.31,0,0,1,2-2.6,13,13,0,0,1,2.39-2.23,7.29,7.29,0,0,1,3-1.33l-.19.34a53,53,0,0,1-2.74-10.18,44.83,44.83,0,0,1-.52-10.54,28.64,28.64,0,0,1,2.67-10.22,23.67,23.67,0,0,1,6.61-8.22.31.31,0,0,1,.35,0h0a59.07,59.07,0,0,0,18,5.39,82.67,82.67,0,0,0,9.43.77c1.58,0,3.16,0,4.74-.07l4.75-.27c6.34-.28,12.9.35,18.76,3.07a18,18,0,0,1,7.44,6,9.93,9.93,0,0,1,1.67,4.55,8.83,8.83,0,0,1-.88,4.77l-.47-.29a22.25,22.25,0,0,0,3.86-8.5,14.3,14.3,0,0,0-1-9.14,18.38,18.38,0,0,0-6.25-6.89,38.18,38.18,0,0,0-8.45-4.23h0a.18.18,0,0,1-.06-.31,45.5,45.5,0,0,1,7.15-5.55,48.1,48.1,0,0,1,8.06-4.1c1.4-.58,2.85-1,4.29-1.45.73-.2,1.47-.34,2.21-.51l1.1-.25,1.12-.16a39,39,0,0,1,9-.33l-.09.24A33.4,33.4,0,0,0,189.69,68a33.93,33.93,0,0,0-11.12-1.18,21.79,21.79,0,0,0-2.79.28,18.31,18.31,0,0,0-2.76.48l-2.73.66-2.65,1-1.32.48c-.43.18-.84.4-1.27.6l-2.52,1.24c-1.64.89-3.19,2-4.79,2.93h0a.22.22,0,0,1-.3-.07.22.22,0,0,1,0-.27,96.91,96.91,0,0,1,10.19-7.63,103.1,103.1,0,0,1,11.07-6.29,78.37,78.37,0,0,1,11.85-4.66,64.12,64.12,0,0,1,12.52-2.41l0,.66c-2.76-.46-5.55-.79-8.34-1s-5.59-.41-8.39-.47-5.6,0-8.39.24a55.79,55.79,0,0,0-8.25,1.31h0a.38.38,0,0,1-.46-.28.38.38,0,0,1,.2-.43q9.84-5.05,19.94-9.54c3.38-1.47,6.77-2.93,10.21-4.24s6.93-2.56,10.5-3.55l.13.78c-11,.87-21.94,2.16-32.85,3.71s-21.77,3.45-32.54,5.75A271.75,271.75,0,0,0,113,54.69a147.78,147.78,0,0,0-15.28,6.23,71.65,71.65,0,0,0-14,8.63l.09-.17L83,80a.24.24,0,0,1-.14.18L70.17,84.7l.1-.21Zm0,.07-7.2-25a.18.18,0,0,1,.11-.2l12.68-4.63-.14.19.68-10.59a.26.26,0,0,1,.09-.17,71.49,71.49,0,0,1,14.06-8.77,148,148,0,0,1,15.31-6.33,273.59,273.59,0,0,1,31.91-8.82c10.79-2.34,21.68-4.21,32.61-5.77s21.89-2.82,32.9-3.69a.41.41,0,0,1,.43.37.4.4,0,0,1-.29.42c-3.53,1-7,2.21-10.42,3.52s-6.82,2.75-10.18,4.22q-10.09,4.45-19.91,9.5l-.27-.71a55.56,55.56,0,0,1,8.38-1.33c2.82-.21,5.64-.27,8.47-.22s5.63.24,8.44.51,5.59.61,8.38,1.08a.34.34,0,0,1,.27.39.33.33,0,0,1-.29.27h0a63.05,63.05,0,0,0-12.4,2.32A78.11,78.11,0,0,0,179,60.71a102.26,102.26,0,0,0-11,6.21,94.93,94.93,0,0,0-10.17,7.55l-.26-.34c1.61-1,3.18-2,4.84-2.94L164.89,70c.43-.2.84-.42,1.28-.6l1.34-.48,2.67-1,2.76-.66a18.68,18.68,0,0,1,2.79-.47,22.26,22.26,0,0,1,2.82-.28,34.63,34.63,0,0,1,11.23,1.23A33.4,33.4,0,0,1,200,72.44a.12.12,0,0,1,0,.18.13.13,0,0,1-.11.06h0a36.89,36.89,0,0,0-9,.32l-1.11.16-1.1.26c-.72.18-1.46.32-2.18.52-1.43.45-2.87.87-4.25,1.46a47.43,47.43,0,0,0-8,4.1A45.14,45.14,0,0,0,167.28,85l-.07-.32a38.83,38.83,0,0,1,8.57,4.23,23,23,0,0,1,3.66,3.1A17,17,0,0,1,182.21,96a14.82,14.82,0,0,1,1.07,9.46,22.83,22.83,0,0,1-3.92,8.73.27.27,0,0,1-.39.06.28.28,0,0,1-.08-.34h0a8.24,8.24,0,0,0,.81-4.47,9.42,9.42,0,0,0-1.59-4.28,17.42,17.42,0,0,0-7.22-5.77c-5.72-2.63-12.19-3.24-18.46-2.94l-4.75.29c-1.59.11-3.19.06-4.78.09a74.07,74.07,0,0,1-9.53-.78,59.59,59.59,0,0,1-18.26-5.55l.37,0a23.24,23.24,0,0,0-6.47,8,27.81,27.81,0,0,0-2.64,10,43.16,43.16,0,0,0,.47,10.4,51.47,51.47,0,0,0,2.67,10.08.26.26,0,0,1-.14.33h-.06a6.9,6.9,0,0,0-2.82,1.23,13.37,13.37,0,0,0-2.31,2.14,26,26,0,0,0-3.52,5.3.22.22,0,0,1-.3.1.25.25,0,0,1-.12-.18l-.57-5.05c-.32-1.66-.68-3.32-1.06-5l-.79-2.41-.4-1.21c-.14-.4-.35-.77-.52-1.15l-1.09-2.3-1.36-2.14A20.85,20.85,0,0,0,87,111.9c-.37-.19-.74-.4-1.13-.58l-1.19-.46a19.91,19.91,0,0,0-2.42-.74A19.57,19.57,0,0,0,77.15,109.63Z"/><polygon class="cls-6" points="84.93 146.99 90.23 163.58 96.22 161.81 90.58 144.52 84.93 146.99"/><path d="M85,147c.55,1.43,1.06,2.82,1.55,4.2s1,2.73,1.42,4.1.89,2.71,1.27,4.08.74,2.76,1.16,4.14l-.19-.1c2-.54,4-1.17,6-1.83l-.14.28c-.53-1.42-1-2.85-1.55-4.28L93,153.3q-.73-2.15-1.41-4.32c-.46-1.44-.88-2.9-1.32-4.35l.45.2C88.88,145.57,87,146.25,85,147Zm-.08,0c1.76-.89,3.62-1.85,5.55-2.76a.33.33,0,0,1,.44.15v0c.51,1.43,1,2.85,1.51,4.29s1,2.88,1.41,4.32l1.35,4.35c.44,1.45.86,2.91,1.27,4.36v0a.22.22,0,0,1-.15.26h0c-2,.52-4,1.07-6,1.7a.14.14,0,0,1-.19-.09h0c-.46-1.38-1-2.75-1.49-4.15s-1-2.8-1.37-4.21-.86-2.81-1.23-4.19S85.23,148.31,84.89,147Z"/><path class="cls-5" d="M89.66,116.46s-5-15.22-15-10S64,159.89,91,143.69"/><path d="M89.61,116.48a23.87,23.87,0,0,0-5.3-8.24A8.46,8.46,0,0,0,80.19,106a7.56,7.56,0,0,0-4.63.56,7.29,7.29,0,0,0-3.48,3.16,18.77,18.77,0,0,0-1.16,2.17c-.29.77-.61,1.53-.83,2.33A34.52,34.52,0,0,0,68.65,124a43.12,43.12,0,0,0,.92,9.83,22.08,22.08,0,0,0,3.8,8.89,10.65,10.65,0,0,0,3.66,3,7.37,7.37,0,0,0,1.1.43l.57.2c.19.05.39.07.58.11.4,0,.79.15,1.19.18h1.21a6.24,6.24,0,0,0,1.21-.1l1.21-.17c.78-.22,1.59-.39,2.36-.67s1.55-.57,2.3-.91L91,143.65a0,0,0,0,1,.06,0s0,.05,0,.06L88.89,145c-.73.41-1.51.73-2.27,1.09s-1.59.54-2.39.82l-1.25.24a6,6,0,0,1-1.27.16l-1.28,0c-.43,0-.86-.1-1.28-.15l-.65-.09-.62-.2a8.83,8.83,0,0,1-1.22-.43,11,11,0,0,1-4-3.22l-.78-1-.65-1.1a20.25,20.25,0,0,1-1.11-2.3A29.66,29.66,0,0,1,68.73,134a38.75,38.75,0,0,1-.58-10,47,47,0,0,1,1.64-9.86,21.77,21.77,0,0,1,1.86-4.67,7.48,7.48,0,0,1,.67-1.08l.38-.52c.13-.17.29-.32.44-.48l.45-.47.54-.38a5.33,5.33,0,0,1,1.13-.65,8.78,8.78,0,0,1,2.48-.74,6.56,6.56,0,0,1,2.61.09,9.21,9.21,0,0,1,4.44,2.56,21.19,21.19,0,0,1,4.91,8.71s0,0,0,.06A.07.07,0,0,1,89.61,116.48Z"/><path d="M85.77,125.09a1.58,1.58,0,0,0-2.17-.23,1.93,1.93,0,0,0-.46,2.14,2.68,2.68,0,0,0,1.68,1.52,17.1,17.1,0,0,0,2.48.37,2.23,2.23,0,0,1,1.31.68,1.84,1.84,0,0,1,.33,1.45l-.24,2.55c-.17,1.7-.34,3.37-.58,5.1a6.63,6.63,0,0,1-.88,2.5A5.28,5.28,0,0,1,85.29,143a6.83,6.83,0,0,1-5.11.47,9.87,9.87,0,0,1-4.27-2.83,16,16,0,0,1-2.73-4.37,27.65,27.65,0,0,1-1.91-10.09A22.33,22.33,0,0,1,72.9,116,12.4,12.4,0,0,1,76,111.74a7.33,7.33,0,0,1,2.28-1.41A4.16,4.16,0,0,1,81,110.2a4.48,4.48,0,0,1,2.17,1.59A12.52,12.52,0,0,1,84.5,114l2.14,4.64a0,0,0,0,1,0,.06,0,0,0,0,1-.05,0l-2.44-4.49c-.8-1.45-1.8-3-3.32-3.4s-3.12.43-4.29,1.52a12.21,12.21,0,0,0-2.84,4,23.26,23.26,0,0,0-1.63,9.82,28.55,28.55,0,0,0,1.55,9.93,14.21,14.21,0,0,0,2.53,4.34,8.82,8.82,0,0,0,4.13,2.76,6.14,6.14,0,0,0,4.8-.61,4.64,4.64,0,0,0,1.68-1.7,6.28,6.28,0,0,0,.7-2.31c.22-1.66.33-3.38.53-5.07l.29-2.53a1.23,1.23,0,0,0-.16-1,1.61,1.61,0,0,0-.93-.46,13.32,13.32,0,0,1-2.54-.49,3.15,3.15,0,0,1-1.9-1.89,2.22,2.22,0,0,1,.71-2.51,1.73,1.73,0,0,1,2.4.41,0,0,0,0,1,0,.06A0,0,0,0,1,85.77,125.09Z"/><path d="M84.38,129.45a5.3,5.3,0,0,1-.48,4.21,4,4,0,0,1-1.63,1.56,2.49,2.49,0,0,1-2.34,0,4.76,4.76,0,0,1-1.54-1.59,10.34,10.34,0,0,1-.94-1.92,13,13,0,0,1-.83-4.15,18.56,18.56,0,0,1,2-8.22c.3-.64.6-1.27.92-1.89a2.48,2.48,0,0,1,.32-.53.84.84,0,0,1,.83-.29,1.71,1.71,0,0,1,1,.85,5.32,5.32,0,0,1,.62,4.19.06.06,0,0,1-.06,0,.09.09,0,0,1,0,0,5.55,5.55,0,0,0-1.07-3.8c-.19-.27-.43-.51-.57-.51s0,0-.1.06a2.52,2.52,0,0,0-.18.39l-.83,1.91a23.39,23.39,0,0,0-2.31,7.86,8.89,8.89,0,0,0,.62,4.05,6.47,6.47,0,0,0,1.07,1.74,4.35,4.35,0,0,0,1.47,1.26c1.1.52,2.41-.26,3.12-1.3a5.88,5.88,0,0,0,.94-3.85s0-.05,0-.05S84.38,129.43,84.38,129.45Z"/><path class="cls-7" d="M137.31,120a33.29,33.29,0,0,0,.52,12.81,104.76,104.76,0,0,0-.25-13l-.35,1.36"/><path class="cls-7" d="M155.9,121.6a23.21,23.21,0,0,0,.63,9.56,14.57,14.57,0,0,0-.35-9.27l0,.65"/><path d="M148.82,153.89a16.63,16.63,0,0,0,5.19.34,13.92,13.92,0,0,0,2.5-.44,9.38,9.38,0,0,0,1.13-.37c.32-.15.46-.31.48-.44a2.1,2.1,0,0,0,0-.89,7.39,7.39,0,0,0-.26-1.13,9.9,9.9,0,0,0-1-2.15c-.87-1.4-2-2.73-3.09-4.16a28,28,0,0,1-2.82-4.7,33.24,33.24,0,0,1-1.87-5.1,55.13,55.13,0,0,1-1.76-10.54c1.17,3.36,2.14,6.76,3.38,10a35.9,35.9,0,0,0,4.82,9,44.84,44.84,0,0,1,3.12,4.42,12,12,0,0,1,1.1,2.68,8.05,8.05,0,0,1,.24,1.47,3.5,3.5,0,0,1-.22,1.73,2.42,2.42,0,0,1-1.47,1.24,7.7,7.7,0,0,1-1.43.31,15,15,0,0,1-2.76.11A13.08,13.08,0,0,1,148.82,153.89Z"/><circle class="cls-8" cx="132.8" cy="140.49" r="0.96"/><circle class="cls-8" cx="141.35" cy="143.62" r="0.59"/><circle class="cls-8" cx="139.36" cy="140.86" r="0.59"/><circle class="cls-8" cx="142.86" cy="138.79" r="0.59"/><circle class="cls-8" cx="157.6" cy="138.79" r="0.96"/><circle class="cls-8" cx="160.48" cy="140.86" r="0.59"/><circle class="cls-8" cx="160.44" cy="137.63" r="0.59"/><path class="cls-9" d="M135,162.47a24.53,24.53,0,0,0,22.64,2.93s-3.12,11.53-14.06,10.17S135,162.47,135,162.47Z"/><path d="M134.94,162.41a31.48,31.48,0,0,0,5.4,2.43,27.75,27.75,0,0,0,5.66,1.28,31,31,0,0,0,5.79.2,23.9,23.9,0,0,0,2.9-.35,27.63,27.63,0,0,0,2.84-.76h0a.2.2,0,0,1,.24.14.24.24,0,0,1,0,.12,18.62,18.62,0,0,1-4.8,7.95,11.73,11.73,0,0,1-4.16,2.38,12,12,0,0,1-2.37.47,10,10,0,0,1-1.21.09l-1.21,0-.6,0-.59-.11-1.19-.24a7.86,7.86,0,0,1-1.16-.38,5.11,5.11,0,0,1-1.12-.5,8.35,8.35,0,0,1-3.52-3.37,10.45,10.45,0,0,1-1.37-4.57,13.06,13.06,0,0,1,0-2.34c0-.39.09-.78.14-1.16l.11-.57.07-.29,0-.14A.64.64,0,0,1,134.94,162.41Zm.05.12c0,.05,0,.06,0,.1v.14l0,.29,0,.57c0,.38,0,.76,0,1.13a16.51,16.51,0,0,0,.26,2.24,11.19,11.19,0,0,0,1.58,4.07,9.4,9.4,0,0,0,7.33,3.83l1.09.08a8,8,0,0,0,1.09,0,11.09,11.09,0,0,0,2.14-.34,11.89,11.89,0,0,0,3.88-1.94,14.69,14.69,0,0,0,5-7.31l.27.25a37.74,37.74,0,0,1-5.79,1.57,19.11,19.11,0,0,1-6,.13,22,22,0,0,1-8.51-3c-.42-.27-.84-.54-1.24-.84-.21-.14-.41-.3-.6-.45l-.29-.24C135.11,162.68,135,162.63,135,162.53Z"/><path class="cls-10" d="M137.76,173.11s2.16-2.66,7-2.15,7.21,2.62,7.21,2.62A12.6,12.6,0,0,1,137.76,173.11Z"/><path class="cls-11" d="M13.09,231.28c7.15-7.08,16.39-11.59,25.44-16,2-1,4.25-2,6.39-1.37a9.39,9.39,0,0,1,3.86,2.74c5.47,5.53,11,11.15,14.84,17.92S69.44,249.54,67.3,257c-1.33,4.65-4.81,9.19-9.62,9.72-3.38.38-6.69-1.31-9.27-3.53s-4.62-5-7-7.39c-5.5-5.45-12.77-8.89-18.14-14.46-3.4-3.52-6-7.89-10.19-10.48"/><path class="cls-12" d="M34.7,219.14a10.48,10.48,0,0,1,.69-5.78,5.8,5.8,0,0,1,3.19-3.27c2.48-.88,5.1.69,7.27,2.18,1.08.74,2.29,1.76,2.14,3.07a3.14,3.14,0,0,1-.66,1.42,10.92,10.92,0,0,1-7.06,4.32c-2.16.34-4.92-.46-5.28-2.61"/><path class="cls-12" d="M19.41,228.56a13.86,13.86,0,0,1,.58-6c.77-1.88,2.67-3.46,4.68-3.18a7,7,0,0,1,3.27,1.79l2.33,1.91a1.79,1.79,0,0,1,.54.59,1.64,1.64,0,0,1-.2,1.4c-2,3.71-6.9,4.85-11,4.06"/><path class="cls-12" d="M189.53,223.68c-3.66-.76.57-6.88,2.4-7.37,1.42-.38,2.74.85,3.57,2.06a17.78,17.78,0,0,1,2.08,4.13c.29.83.37,2-.43,2.35a1.84,1.84,0,0,1-1,.05,60,60,0,0,1-6.66-1.22"/><path class="cls-12" d="M200.78,224.32c1.62-.66,2.78-2.06,4.09-3.21s3.09-2.1,4.75-1.58c2.2.69,2.88,3.41,3.22,5.68a2.47,2.47,0,0,1,0,1.24c-.34.9-1.52,1.07-2.48,1a20.47,20.47,0,0,1-8.69-2.36.43.43,0,0,1,.18-.72"/><path class="cls-6" d="M120.86,315.73l-.63-41.32a6.23,6.23,0,0,1,.23-2.24c.89-2.48,4.18-2.84,6.82-2.81a283.7,283.7,0,0,0,44.35-2.95L171,324.29"/><path d="M121.54,315.73,121,278.34c-.06-4.14,1-8.08,5.74-8.3,3.07-.14,6.2,0,9.28,0q9.2-.18,18.35-.94,4.33-.36,8.66-.86c1.53-.18,5.44-1.49,6.9-.87,2.61,1.1.88,15.26.85,18l-.44,38.92a.68.68,0,0,0,1.35,0l.65-57.88a.68.68,0,0,0-.85-.65,291.12,291.12,0,0,1-30.63,2.76c-4.52.16-9,.05-13.54.16-1.93.05-4.25,0-5.88,1.26a4.54,4.54,0,0,0-1.83,3.33c-.7,4,.1,8.87.16,12.94l.45,29.52a.68.68,0,0,0,1.36,0Z"/><path class="cls-13" d="M206.84,36.47s-88,17.17-97.41,45.31L82.82,80l23.89,5.77s-16.13,1.31-6.25,52.1c0,0,1.14,18.47,24.57,47.19a40.93,40.93,0,0,1-19.23-15.93s15.81,20.29,12.14,57.89c0,0-18.85-5.45-24.12-18.13,0,0-.79-44.51-.91-45.26s-2.68,0-2.68,0L84.93,147a41.39,41.39,0,0,1-8.08-.89s-8.62-4.31-8.49-21.07c0,0,.32-18.51,9.11-19.63,0,0,14.37,3,14.31,11.58,0,0-8-10.1-12.1-11.58l-3,1.1-6.57-22,12.2-4.38,1-1.13.18-9.66S107.83,45.21,206.84,36.47Z"/><path class="cls-13" d="M139.64,225.13a67,67,0,0,1-43.42,5.43C71.78,225.33,48.46,198.85,65,188.85c0,0,3.81-4.28,19.93,3.55,0,0,5,3.06,8.82,3.35l.07,13.09S98.28,234,139.64,225.13Z"/><path class="cls-14" d="M147.25,124.85s1.79,18.34-2.37,21.7c-4.57,3.68-5.95,8.82,7.11,7.21,0,0,7.11,2,7-1.49S145.16,131.34,147.25,124.85Z"/><path class="cls-14" d="M171.63,266.41c-23.26,3.16-49.39,9.53-37.3,51.23l-13.47-1.91s-5.47-46,3.49-46.17S171.63,266.41,171.63,266.41Z"/><path class="cls-14" d="M194.12,216.88s-4.44,6.88-2.88,7.19c0,0-4.49-.32-2.67-3.48S191.12,215.76,194.12,216.88Z"/><path class="cls-14" d="M210.11,220.8s-5.05,5.36-3.66,6.13c0,0-8-1.15-2.75-4.28C206.83,220.78,207.59,218.83,210.11,220.8Z"/><path class="cls-13" d="M99.54,242.34,101.6,232c-45.88-12.39-41.76-36.82-41.76-36.82-7.3,8.29-6,14.46-6,14.46l-8,2.62s-4.8-3-8.13-1.76-3.6,6.4-3.6,6.4l-6.77,3.58c-2.92-2.56-5.92,0-5.92,0s-2.9,3.25-.61,6.48-2.73,0-2.73,0l-2.92,2.38S8.36,237.85,1,239.19c0,0,3.15,25.38,41.33,39.56,0,0,30.47,19.5,38.41,23s13.75,5.43,13.75,5.43l-.13-1.32C94.53,307.14,45.52,236.19,99.54,242.34Z"/><g class="cls-15"><circle class="cls-16" cx="140.58" cy="122.19" r="119.84"/><path class="cls-16" d="M260.42,122.19l-.12,5.88c-.11,2-.28,3.92-.41,5.87s-.44,3.9-.66,5.85-.62,3.88-.93,5.82A121.62,121.62,0,0,1,252,168.32a118.26,118.26,0,0,1-10.62,21.19,120,120,0,0,1-14.72,18.71,121.69,121.69,0,1,1,0-172,122.22,122.22,0,0,1,14.71,18.72,119.51,119.51,0,0,1,10.62,21.18,122.35,122.35,0,0,1,6.37,22.7A129.7,129.7,0,0,1,260.42,122.19Zm0,0A114.43,114.43,0,0,0,258,98.84a117.52,117.52,0,0,0-7.26-22.26,120.1,120.1,0,0,0-11.55-20.25,118.58,118.58,0,0,0-15.1-17.6l-4.23-4L215.45,31c-1.52-1.2-3-2.42-4.56-3.58s-3.13-2.26-4.73-3.34a118.09,118.09,0,1,0,0,196.3A123.42,123.42,0,0,0,224,205.65a122.53,122.53,0,0,0,26.63-37.86A116.78,116.78,0,0,0,258,145.54c.35-1.93.77-3.84,1.07-5.78s.58-3.88.78-5.83.32-3.9.45-5.86Z"/></g><path class="cls-2" d="M260.42,122.19l-.12,5.88c-.11,2-.28,3.92-.41,5.87s-.44,3.9-.66,5.85-.62,3.88-.93,5.82A121.62,121.62,0,0,1,252,168.32a118.26,118.26,0,0,1-10.62,21.19,120,120,0,0,1-14.72,18.71,121.69,121.69,0,1,1,0-172,122.22,122.22,0,0,1,14.71,18.72,119.51,119.51,0,0,1,10.62,21.18,122.35,122.35,0,0,1,6.37,22.7A129.7,129.7,0,0,1,260.42,122.19Zm0,0A114.43,114.43,0,0,0,258,98.84a117.52,117.52,0,0,0-7.26-22.26,120.1,120.1,0,0,0-11.55-20.25,118.58,118.58,0,0,0-15.1-17.6l-4.23-4L215.45,31c-1.52-1.2-3-2.42-4.56-3.58s-3.13-2.26-4.73-3.34a118.09,118.09,0,1,0,0,196.3A123.42,123.42,0,0,0,224,205.65a122.53,122.53,0,0,0,26.63-37.86A116.78,116.78,0,0,0,258,145.54c.35-1.93.77-3.84,1.07-5.78s.58-3.88.78-5.83.32-3.9.45-5.86Z"/><ellipse class="cls-16" cx="232.44" cy="99.41" rx="5.75" ry="18.19" transform="translate(-20.16 89.25) rotate(-20.85)"/></g></g></svg>