<svg id="avatar" xmlns="http://www.w3.org/2000/svg" viewBox="0 0 363.78 88.22"><defs><style>.cls-1{fill:#f56860;}.cls-2{fill:#f5e4b0;}</style></defs><title>text_space</title><path class="cls-1" d="M53.76,66.57c2.12,2.75,3.71,5.19,3.71,8.79,0,7.94-6,12-13.34,12H20.84c-4,0-7.52-.74-10.69-3.39a13.38,13.38,0,0,1-5-9.84c0-3.39,1.91-6.35,5.61-6.35,3.07,0,5,2.54,5,5.4,0,3.18,1.69,3.6,4.66,3.6h23c.85,0,3.49.32,3.49-1.27,0-.85-1.48-2.43-1.91-3.07L8.67,25.71c-2.22-2.86-3.49-5-3.49-8.68A11.79,11.79,0,0,1,10.79,6.87C13.75,5,16.18,5,19.57,5H42c4,0,7.41.85,10.48,3.49,2.75,2.43,5,6.35,5,10.06,0,3.39-1.69,6.14-5.5,6.14a4.7,4.7,0,0,1-5.08-5c0-3.6-1.8-4.13-5.08-4.13H19.36c-1.16,0-3.6-.32-3.6,1.48,0,1,1.16,2.22,1.59,2.86Z"/><path class="cls-1" d="M92,82c0,3.39-1.48,5.29-5.29,5.29S81.39,85.41,81.39,82V5h35.14c4.87,0,8.36.74,12.17,4.34,4.55,4.23,5,8.15,5,13.87v14.4c0,5.4-.42,9.21-4.34,13.55-4.13,4.66-8.47,5.08-14.18,5.08H92Zm0-36.41h23.5c6.24,0,7.62-1.59,7.62-7.62V23.17c0-6-1.38-7.62-7.62-7.62H92Z"/><path class="cls-1" d="M178.35,10.36c.85-2.86,2-5.4,5.4-5.4s4.76,2.65,5.5,5.4L209.69,82c.74,2.54-2.12,5.29-5.08,5.29-3.28,0-5-2.75-5.72-5.29L195,69.32H172.43l-4,12.7c-.74,2.54-2.43,5.29-5.72,5.29-3,0-5.82-2.75-5.08-5.29ZM183.86,30h-.21l-8.26,28.69H192Z"/><path class="cls-1" d="M262.3,87.31c-7.94,0-12.49-3.18-15.88-10.06l-9.74-19.69a23.78,23.78,0,0,1-2.86-11.11,23.11,23.11,0,0,1,3-11.75l9.74-19.58C250.12,7.82,254.68,5,262.83,5h18c2.33,0,5.29,1.27,5.29,5.29a5,5,0,0,1-5.29,5.29H263.14c-4.55,0-5.29.42-7.3,4.45l-9.21,18.42c-1.38,2.86-2.22,4.76-2.22,8,0,3,1,4.76,2.22,7.3l9,18.31c2.12,4.34,3.18,4.66,7.94,4.66h17.25c2.33,0,5.29,1.27,5.29,5.29a5,5,0,0,1-5.29,5.29Z"/><path class="cls-1" d="M357,76.73c2.75,0,5.29,1.48,5.29,5.29s-2.54,5.29-5.29,5.29H310V5h47c2.75,0,5.29,1.48,5.29,5.29s-2.54,5.29-5.29,5.29H320.62v25.3h15.56c2.75,0,5.29,1.48,5.29,5.29s-2.54,5.29-5.29,5.29H320.62v25.3Z"/><path class="cls-2" d="M48.8,61.61c2.12,2.75,3.71,5.19,3.71,8.79,0,7.94-6,12-13.34,12H15.88c-4,0-7.52-.74-10.69-3.39a13.38,13.38,0,0,1-5-9.84c0-3.39,1.91-6.35,5.61-6.35,3.07,0,5,2.54,5,5.4,0,3.18,1.69,3.6,4.66,3.6h23c.85,0,3.49.32,3.49-1.27,0-.85-1.48-2.43-1.91-3.07L3.71,20.75c-2.22-2.86-3.49-5-3.49-8.68A11.79,11.79,0,0,1,5.82,1.91C8.79,0,11.22,0,14.61,0H37.05c4,0,7.41.85,10.48,3.49,2.75,2.43,5,6.35,5,10.06,0,3.39-1.69,6.14-5.5,6.14a4.7,4.7,0,0,1-5.08-5c0-3.6-1.8-4.13-5.08-4.13H14.4c-1.16,0-3.6-.32-3.6,1.48,0,1,1.16,2.22,1.59,2.86Z"/><path class="cls-2" d="M87,77.06c0,3.39-1.48,5.29-5.29,5.29s-5.29-1.91-5.29-5.29V0h35.14c4.87,0,8.36.74,12.17,4.34,4.55,4.23,5,8.15,5,13.87V32.6c0,5.4-.42,9.21-4.34,13.55-4.13,4.66-8.47,5.08-14.18,5.08H87Zm0-36.41h23.5c6.24,0,7.62-1.59,7.62-7.62V18.21c0-6-1.38-7.62-7.62-7.62H87Z"/><path class="cls-2" d="M173.39,5.4c.85-2.86,2-5.4,5.4-5.4s4.76,2.65,5.5,5.4l20.43,71.66c.74,2.54-2.12,5.29-5.08,5.29-3.28,0-5-2.75-5.72-5.29L190,64.36H167.47l-4,12.7c-.74,2.54-2.43,5.29-5.72,5.29-3,0-5.82-2.75-5.08-5.29Zm5.5,19.69h-.21l-8.26,28.69H187Z"/><path class="cls-2" d="M257.34,82.35c-7.94,0-12.49-3.18-15.88-10.06l-9.74-19.69a23.78,23.78,0,0,1-2.86-11.11,23.11,23.11,0,0,1,3-11.75l9.74-19.58C245.16,2.86,249.71,0,257.87,0h18c2.33,0,5.29,1.27,5.29,5.29a5,5,0,0,1-5.29,5.29H258.18c-4.55,0-5.29.42-7.3,4.45l-9.21,18.42c-1.38,2.86-2.22,4.76-2.22,8,0,3,1,4.76,2.22,7.3l9,18.31c2.12,4.34,3.18,4.66,7.94,4.66h17.25c2.33,0,5.29,1.27,5.29,5.29a5,5,0,0,1-5.29,5.29Z"/><path class="cls-2" d="M352.08,71.77c2.75,0,5.29,1.48,5.29,5.29s-2.54,5.29-5.29,5.29h-47V0h47c2.75,0,5.29,1.48,5.29,5.29s-2.54,5.29-5.29,5.29H315.66v25.3h15.56c2.75,0,5.29,1.48,5.29,5.29s-2.54,5.29-5.29,5.29H315.66v25.3Z"/></svg>